<?xml version="1.0" encoding="UTF-8"?>
<svg version="1.1" xmlns="http://www.w3.org/2000/svg" width="2000" height="1500">
<path d="M0 0 C660 0 1320 0 2000 0 C2000 495 2000 990 2000 1500 C1340 1500 680 1500 0 1500 C0 1005 0 510 0 0 Z " fill="#FEFEFE" transform="translate(0,0)"/>
<path d="M0 0 C36.3 0 72.6 0 110 0 C112.36797067 5.91992668 114.57352387 11.48781091 116.4375 17.51953125 C116.64431396 18.18482346 116.85112793 18.85011566 117.06420898 19.53556824 C117.71329 21.62671969 118.35676233 23.71954477 119 25.8125 C119.42931565 27.19868293 119.8590014 28.58475129 120.2890625 29.97070312 C121.8657892 35.05762065 123.43267132 40.14752666 124.9921875 45.23974609 C127.93600493 54.84516693 130.96721664 64.42239528 134 74 C135.04225898 77.2914796 136.08382502 80.58317737 137.125 83.875 C137.35429199 84.5983252 137.58358398 85.32165039 137.81982422 86.06689453 C139.21098343 90.46548521 140.57766759 94.87106269 141.93164062 99.28125 C143.91510063 105.73839442 145.93615721 112.18317745 147.96875 118.625 C148.33093628 119.77436035 148.69312256 120.9237207 149.06628418 122.10791016 C150.21044114 125.73873773 151.35514812 129.36939149 152.5 133 C154.01092205 137.79150755 155.52125837 142.58319917 157.03125 147.375 C157.36991089 148.44830566 157.70857178 149.52161133 158.05749512 150.62744141 C160.09512284 157.0938546 162.10446833 163.56835298 164.09057617 170.05078125 C165.5276065 174.71100308 167.01348505 179.3553769 168.5 184 C170.69690057 190.88408747 172.87268889 197.77299489 174.98266602 204.68432617 C179.18213105 218.37113554 183.52599096 232.01371841 187.84594727 245.6628418 C192.78447877 261.26884835 192.78447877 261.26884835 194.99609375 268.48828125 C197.60696092 277.01011401 200.30942026 285.50308276 203 294 C206.03539491 303.58585206 209.06593649 313.1721008 212.01196289 322.78588867 C216.20835987 336.43688108 220.53659212 350.04721332 224.84594727 363.6628418 C227.62940473 372.4587066 230.39679813 381.2582057 233.09936523 390.0793457 C234.5334888 394.73004242 236.01652012 399.36485999 237.5 404 C239.69690057 410.88408747 241.87268889 417.77299489 243.98266602 424.68432617 C248.18213105 438.37113554 252.52599096 452.01371841 256.84594727 465.6628418 C261.78777123 481.2792527 261.78777123 481.2792527 263.98046875 488.453125 C265.61647786 493.79646346 267.31041226 499.11987538 269.015625 504.44140625 C269.8202413 506.95963564 270.62450059 509.47797884 271.42871094 511.99633789 C271.98158051 513.72380879 272.53630341 515.45068751 273.09277344 517.17700195 C273.90571664 519.70096767 274.71133121 522.22717312 275.515625 524.75390625 C275.76556213 525.52368301 276.01549927 526.29345978 276.27301025 527.08656311 C277.38061075 530.5872509 278 533.29180442 278 537 C254.9 537 231.8 537 208 537 C203.44781753 522.77442977 198.909847 508.58858451 194.66751099 494.27496338 C191.23376232 482.69228792 187.78139329 471.11995269 184.0625 459.625 C181.83759839 452.7460141 179.79861475 445.84340097 177.90356445 438.86669922 C175.16659962 428.84180831 172.04180224 418.936554 169 409 C166.03 399.1 163.06 389.2 160 379 C90.7 378.67 21.4 378.34 -50 378 C-50.66 381.3 -51.32 384.6 -52 388 C-52.47003706 389.77790185 -52.9678617 391.54917469 -53.515625 393.3046875 C-53.79414307 394.20727295 -54.07266113 395.1098584 -54.35961914 396.03979492 C-54.65344482 396.9754126 -54.94727051 397.91103027 -55.25 398.875 C-55.87928671 400.91003864 -56.50818609 402.94519709 -57.13671875 404.98046875 C-57.45044434 405.99157715 -57.76416992 407.00268555 -58.08740234 408.04443359 C-59.43781138 412.41790919 -60.75191876 416.80195927 -62.0625 421.1875 C-62.52964671 422.74814534 -62.99685728 424.30877156 -63.46411133 425.86938477 C-64.39190474 428.96823695 -65.31908524 432.06727086 -66.24560547 435.16650391 C-69.40227897 445.71569265 -72.58879481 456.25575172 -75.78515625 466.79296875 C-75.99776911 467.49394117 -76.21038197 468.1949136 -76.42943764 468.91712761 C-78.42139538 475.48427689 -80.41392442 482.05125268 -82.4074707 488.61791992 C-83.72160217 492.94687969 -85.0350091 497.27605867 -86.34765625 501.60546875 C-86.55702442 502.29597195 -86.76639259 502.98647514 -86.98210526 503.69790268 C-89.75092537 512.83330185 -92.49120111 521.97608697 -95.15795898 531.1418457 C-95.7364372 533.10538427 -96.35268858 535.05806574 -97 537 C-120.43 537 -143.86 537 -168 537 C-165.8509513 529.12015478 -163.54581435 521.46488181 -160.86914062 513.7734375 C-158.83222256 507.79724053 -157.06895146 501.76800734 -155.36328125 495.69140625 C-151.58909014 482.29807686 -147.35103567 469.05094162 -143.13006592 455.79351807 C-142.28893448 453.14887958 -141.45104134 450.50322006 -140.61317444 447.85754585 C-132.80998963 423.22298593 -132.80998963 423.22298593 -128.82531738 411.4967804 C-127.0469071 406.24531344 -125.53848152 400.93808846 -124.0546875 395.59765625 C-123.08769304 392.29913072 -122.03430911 389.05152194 -120.92779541 385.79829407 C-120.53041168 384.629701 -120.53041168 384.629701 -120.125 383.4375 C-119.75900696 382.36143242 -119.75900696 382.36143242 -119.38562012 381.2636261 C-117.55521134 375.81484435 -115.93340997 370.33500949 -114.3984375 364.796875 C-110.61424746 351.36807419 -106.36220759 338.08603094 -102.13006592 324.79351807 C-101.28893448 322.14887958 -100.45104134 319.50322006 -99.61317444 316.85754585 C-91.80998963 292.22298593 -91.80998963 292.22298593 -87.82531738 280.4967804 C-86.0469071 275.24531344 -84.53848152 269.93808846 -83.0546875 264.59765625 C-82.08769304 261.29913072 -81.03430911 258.05152194 -79.92779541 254.79829407 C-79.66287292 254.01923203 -79.39795044 253.24016998 -79.125 252.4375 C-78.88100464 251.72012161 -78.63700928 251.00274323 -78.38562012 250.2636261 C-76.55521134 244.81484435 -74.93340997 239.33500949 -73.3984375 233.796875 C-69.61424746 220.36807419 -65.36220759 207.08603094 -61.13006592 193.79351807 C-60.28893448 191.14887958 -59.45104134 188.50322006 -58.61317444 185.85754585 C-50.80998963 161.22298593 -50.80998963 161.22298593 -46.82531738 149.4967804 C-45.0469071 144.24531344 -43.53848152 138.93808846 -42.0546875 133.59765625 C-41.08769304 130.29913072 -40.03430911 127.05152194 -38.92779541 123.79829407 C-38.66287292 123.01923203 -38.39795044 122.24016998 -38.125 121.4375 C-37.75900696 120.36143242 -37.75900696 120.36143242 -37.38562012 119.2636261 C-35.55521134 113.81484435 -33.93340997 108.33500949 -32.3984375 102.796875 C-28.61424746 89.36807419 -24.36220759 76.08603094 -20.13006592 62.79351807 C-19.28892473 60.14884893 -18.45102239 57.50315859 -17.61314392 54.8574543 C-9.77900107 30.12510014 -9.77900107 30.12510014 -6.00109863 19.02412415 C-3.86405143 12.71674925 -1.96220011 6.37715037 0 0 Z " fill="#36195A" transform="translate(705,481)"/>
<path d="M0 0 C23.1 0 46.2 0 70 0 C70 77.55 70 155.1 70 235 C88.48 235 106.96 235 126 235 C126.66 233.68 127.32 232.36 128 231 C128.77794038 229.91545862 129.59064733 228.8551374 130.43359375 227.8203125 C130.9119165 227.22855225 131.39023926 226.63679199 131.88305664 226.02709961 C132.39602295 225.39940674 132.90898926 224.77171387 133.4375 224.125 C134.52918214 222.77517315 135.62031607 221.42490277 136.7109375 220.07421875 C137.53803223 219.05207275 137.53803223 219.05207275 138.38183594 218.00927734 C140.80102486 215.00536593 143.1841452 211.97378013 145.5625 208.9375 C146.01238281 208.36394775 146.46226562 207.79039551 146.92578125 207.19946289 C148.28447191 205.46679165 149.64236821 203.73350101 151 202 C157.13229282 194.1699419 163.29555658 186.36730552 169.51708984 178.60791016 C172.88707149 174.40115324 176.2347215 170.17771474 179.5625 165.9375 C180.01383301 165.36241699 180.46516602 164.78733398 180.93017578 164.19482422 C183.18176335 161.32366687 185.42989571 158.4498378 187.67578125 155.57421875 C192.57538921 149.30926286 197.5315094 143.09759661 202.5625 136.9375 C207.32857192 131.09927131 211.97616782 125.18820542 216.55078125 119.19921875 C223.07380166 110.66023066 229.76671257 102.26047536 236.5625 93.9375 C241.32849615 88.09920707 245.97616561 82.18820831 250.55078125 76.19921875 C257.6084185 66.96038818 264.8787409 57.89835886 272.23144531 48.89355469 C275.57339051 44.78909793 278.85257071 40.64590062 282.0625 36.4375 C286.11551005 31.12530236 290.25944205 25.89510759 294.44482422 20.68676758 C298.53883313 15.58880536 302.58557031 10.45516658 306.61108398 5.30297852 C309.89937468 1.10062532 309.89937468 1.10062532 311 0 C313.46444057 -0.09500548 315.90074626 -0.12557985 318.36547852 -0.11352539 C319.13615662 -0.11367142 319.90683472 -0.11381744 320.7008667 -0.1139679 C323.26024139 -0.1132686 325.8195442 -0.10547545 328.37890625 -0.09765625 C330.14867615 -0.09579213 331.91844656 -0.0943682 333.68821716 -0.09336853 C338.35551366 -0.08954288 343.02277923 -0.0797122 347.69006348 -0.06866455 C352.44897035 -0.05845144 357.20788221 -0.05387113 361.96679688 -0.04882812 C371.31121153 -0.03808997 380.6556032 -0.02101299 390 0 C385.62933675 6.58964217 385.62933675 6.58964217 383.37109375 9.375 C382.89937744 9.96015381 382.42766113 10.54530762 381.94165039 11.14819336 C381.44528076 11.75928955 380.94891113 12.37038574 380.4375 13 C379.36142475 14.33418845 378.28591608 15.66883404 377.2109375 17.00390625 C376.67178711 17.67309082 376.13263672 18.34227539 375.57714844 19.03173828 C373.2140031 21.9809144 370.88830005 24.95885129 368.5625 27.9375 C364.58103903 33.02934298 360.52678377 38.05693033 356.4375 43.0625 C351.70744079 48.85366202 347.11533036 54.72512398 342.58203125 60.671875 C339.69352598 64.42704455 336.69004287 68.08585728 333.6875 71.75 C329.19849098 77.23055985 324.83636986 82.78772857 320.5625 88.4375 C315.56482602 95.03824432 310.38542115 101.45995822 305.09667969 107.82910156 C299.60132195 114.45360036 294.28684068 121.20878968 289 128 C282.6749286 136.10900634 276.27162732 144.14376568 269.76611328 152.10888672 C266.44217582 156.19055169 263.19218453 160.31446145 260 164.5 C255.73916153 170.08673958 251.33541385 175.54244247 246.89111328 180.98388672 C241.50463711 187.58671505 236.24303122 194.28308592 231 201 C225.21446348 208.41192453 219.38541436 215.7798893 213.4375 223.0625 C208.70700895 228.85574288 204.10136389 234.72487948 199.56640625 240.671875 C194.81906323 246.86554116 189.89312482 252.92142742 185 259 C188.99156987 265.35291465 193.47270541 271.17112479 198.18798828 276.99194336 C201.93441001 281.63105368 205.56297961 286.34303078 209.125 291.125 C213.02444016 296.35967648 216.95371499 301.56628803 220.94335938 306.73291016 C224.85789641 311.80623566 228.74287994 316.90183898 232.625 322 C233.30570557 322.89388428 233.98641113 323.78776855 234.68774414 324.70874023 C236.08862919 326.54859873 237.48942575 328.3885246 238.89013672 330.22851562 C242.32179198 334.73628587 245.75442457 339.24331127 249.1875 343.75 C249.85475098 344.62591797 250.52200195 345.50183594 251.20947266 346.40429688 C255.30081774 351.77374805 259.39771652 357.13890226 263.5 362.5 C270.33062088 371.42664447 277.14150802 380.36828207 283.95166016 389.31054688 C287.30047489 393.70751268 290.65026787 398.10373308 294 402.5 C298.03565845 407.79649269 302.07108457 413.0931616 306.10546875 418.390625 C312.23021214 426.43227281 318.357149 434.47217238 324.5 442.5 C331.33062088 451.42664447 338.14150802 460.36828207 344.95166016 469.31054688 C348.30047489 473.70751268 351.65026787 478.10373308 355 482.5 C359.03565845 487.79649269 363.07108457 493.0931616 367.10546875 498.390625 C374.03721805 507.49179638 380.97316368 516.58966072 387.9284668 525.67285156 C388.88431114 526.92154305 389.83879742 528.17127607 390.79150391 529.42236328 C391.79961937 530.7384122 392.82541603 532.04089305 393.85546875 533.33984375 C395 535 395 535 395 537 C384.56952759 537.46604002 374.14157482 537.82001622 363.70276546 538.03624344 C358.85332981 538.1401076 354.01107241 538.28053298 349.16577148 538.50878906 C317.95202143 539.94121332 317.95202143 539.94121332 309.8303833 535.11743164 C304.96595691 530.65417706 302.00493287 525.54023784 299.29458618 519.5802002 C297.12892534 515.26388769 294.06495982 511.7030821 291 508 C289.83955942 506.52411866 288.68280995 505.04532088 287.53125 503.5625 C286.665 502.44875 286.665 502.44875 285.78125 501.3125 C282.00036561 496.40398343 278.31065667 491.42665327 274.60546875 486.4609375 C270.46565995 480.92405037 266.26099086 475.44406508 262 470 C256.43668938 462.892023 251.00329534 455.69513809 245.60546875 448.4609375 C241.46565995 442.92405037 237.26099086 437.44406508 233 432 C227.43668938 424.892023 222.00329534 417.69513809 216.60546875 410.4609375 C212.46565995 404.92405037 208.26099086 399.44406508 204 394 C198.43894771 386.89490836 193.00763457 379.70103772 187.61206055 372.46972656 C182.83938396 366.0863413 177.96915276 359.78545363 173.05859375 353.5078125 C168.81477763 348.07342354 164.66413817 342.57602439 160.54492188 337.046875 C156.1156745 331.1176833 151.57128797 325.28159341 147.01538086 319.44946289 C142.99926161 314.30253177 139.04789691 309.11595127 135.16015625 303.87109375 C132.15519842 299.87716245 129.06855225 295.94528147 126 292 C107.52 291.67 89.04 291.34 70 291 C70 372.18 70 453.36 70 537 C46.9 537 23.8 537 0 537 C0 359.79 0 182.58 0 0 Z " fill="#36195B" transform="translate(1067,481)"/>
<path d="M0 0 C2.81787209 0.00460015 5.63530928 -0.0021879 8.453125 -0.02050781 C74.91350696 -0.44799482 140.07487808 14.57327511 200.44360352 42.31567383 C201.38510254 42.74460937 202.32660156 43.17354492 203.29663086 43.61547852 C242.38718539 61.5123589 277.90541427 85.31872238 310.44360352 113.31567383 C311.4993457 114.21866211 311.4993457 114.21866211 312.57641602 115.13989258 C316.8715453 118.85095617 321.06661493 122.67375542 325.25610352 126.50317383 C325.82006836 127.01485107 326.3840332 127.52652832 326.96508789 128.05371094 C329.7810064 130.64301747 332.20553694 133.22174215 334.44360352 136.31567383 C300.07081861 138.5043083 300.07081861 138.5043083 292.83935547 132.68383789 C290.76710525 130.56401474 288.84434388 128.36409229 286.98413086 126.05639648 C284.11613564 122.81569824 280.59924481 120.37615565 277.13110352 117.81567383 C276.41535156 117.27475098 275.69959961 116.73382813 274.9621582 116.17651367 C256.39668016 102.16680183 237.0813031 89.51493965 216.59936523 78.48168945 C214.53011345 77.36246561 212.47256845 76.22408445 210.41625977 75.08129883 C190.64515396 64.21019902 169.65005811 55.9168879 148.44360352 48.31567383 C147.31607666 47.90091797 147.31607666 47.90091797 146.16577148 47.4777832 C117.23454905 36.85465249 86.00280183 30.67453731 55.44360352 27.31567383 C54.73791229 27.23309326 54.03222107 27.1505127 53.30514526 27.06542969 C38.31209887 25.33063575 23.46445939 24.99303634 8.38110352 25.06567383 C7.21285034 25.06910797 6.04459717 25.07254211 4.84094238 25.07608032 C-66.65665141 25.32237507 -133.51936073 41.38859133 -197.55639648 73.31567383 C-198.41894043 73.74493164 -199.28148437 74.17418945 -200.17016602 74.61645508 C-232.26314247 90.71725155 -262.47451551 111.75395426 -288.97436523 135.97973633 C-290.36859146 137.24107866 -291.76870776 138.49660051 -293.19970703 139.71606445 C-299.19104426 144.8383816 -304.77697318 150.35011859 -310.34667969 155.9206543 C-311.9821553 157.55394831 -313.62547356 159.17905853 -315.26928711 160.80395508 C-321.83136325 167.33146957 -327.79552341 174.06251291 -333.55639648 181.31567383 C-334.47947726 182.40575391 -335.40910302 183.49037867 -336.34936523 184.56567383 C-377.22355622 231.50764847 -408.91853628 291.76898565 -423.55639648 352.31567383 C-423.72119507 352.99009521 -423.88599365 353.6645166 -424.05578613 354.359375 C-431.68367851 385.61720695 -437.69411462 416.73472498 -437.72436523 449.05004883 C-437.72769363 450.32632141 -437.73102203 451.60259399 -437.73445129 452.9175415 C-437.74038743 455.60673873 -437.74229731 458.29590412 -437.74169922 460.98510742 C-437.7416186 463.68406977 -437.74846764 466.38286007 -437.76220703 469.08178711 C-437.8741066 492.81902853 -436.83617924 516.14099851 -432.86889648 539.56567383 C-432.67423798 540.7339119 -432.67423798 540.7339119 -432.47564697 541.92575073 C-426.50284425 577.56323366 -416.21083952 612.25977774 -401.55639648 645.31567383 C-401.11360352 646.32710449 -400.67081055 647.33853516 -400.21459961 648.38061523 C-382.04657162 689.66988873 -357.31024517 727.4705431 -327.55639648 761.31567383 C-326.76620117 762.21930664 -325.97600586 763.12293945 -325.16186523 764.05395508 C-319.18181742 770.72958196 -312.89363535 777.10583684 -306.58169556 783.46560669 C-305.58208677 784.47325538 -304.58396294 785.48237984 -303.5874939 786.49313354 C-297.7221745 792.43354925 -291.69820715 797.99326728 -285.1628418 803.20605469 C-282.68416147 805.2122627 -280.31037097 807.29284271 -277.94702148 809.43286133 C-273.57802922 813.35409973 -269.01247311 816.93441847 -264.30639648 820.44067383 C-263.01765625 821.40227417 -263.01765625 821.40227417 -261.70288086 822.38330078 C-211.20077639 859.71512293 -154.50529267 885.98819429 -93.36889648 900.12817383 C-92.10402405 900.42100754 -92.10402405 900.42100754 -90.81359863 900.71975708 C-77.05796646 903.88710621 -63.41091938 906.33787068 -49.36889648 907.87817383 C-48.27770508 908.00385742 -47.18651367 908.12954102 -46.06225586 908.2590332 C-29.31527189 910.11764676 -12.6766707 910.50216529 4.16162109 910.50097656 C7.60795528 910.50315917 11.05396633 910.52137594 14.50024414 910.5402832 C35.85383189 910.59753604 56.47905902 908.61991262 77.50610352 905.00317383 C78.41704773 904.84882874 79.32799194 904.69448364 80.26654053 904.53546143 C98.25570058 901.48206567 115.86023988 897.81366665 133.19360352 892.05639648 C135.72944723 891.2215712 138.27372698 890.41550032 140.81860352 889.60864258 C196.03761346 871.89862868 247.16459844 843.69769452 291.18286133 805.93066406 C292.5966191 804.71805993 294.01975446 803.51641263 295.44360352 802.31567383 C295.99419434 801.779021 296.54478516 801.24236816 297.11206055 800.68945312 C300.47802629 798.70617677 303.69923903 798.94390245 307.49047852 799.02270508 C308.2616803 799.02694992 309.03288208 799.03119476 309.82745361 799.03556824 C312.28319667 799.05232 314.7381098 799.08996444 317.19360352 799.12817383 C318.86156039 799.14322525 320.52953016 799.15691286 322.19750977 799.16918945 C326.27985929 799.20221188 330.36159084 799.25396899 334.44360352 799.31567383 C330.31362018 804.28683294 326.00503601 808.81162843 321.25610352 813.19067383 C320.26501587 814.10901001 320.26501587 814.10901001 319.25390625 815.04589844 C314.74538879 819.19250993 310.14113271 823.17642997 305.34985352 826.99536133 C303.18030293 828.72750252 301.04061671 830.47947541 298.91235352 832.26098633 C277.31902691 850.25037764 253.51069896 865.85822169 228.72729492 879.09155273 C226.3566534 880.36228147 223.99997302 881.65683408 221.64282227 882.95239258 C198.56819359 895.49314728 174.23926365 904.81028206 149.44360352 913.31567383 C147.9692733 913.83284407 146.49525694 914.35091101 145.02172852 914.87036133 C79.53460284 937.49574166 3.67916152 942.14323571 -64.55639648 931.31567383 C-65.81436035 931.12312012 -67.07232422 930.93056641 -68.3684082 930.73217773 C-92.92389116 926.90148399 -116.93328783 921.00388486 -140.55639648 913.31567383 C-141.48629395 913.01435547 -142.41619141 912.71303711 -143.37426758 912.40258789 C-176.37778505 901.59769476 -209.18403172 886.98031663 -238.55639648 868.31567383 C-239.34900879 867.81471191 -240.14162109 867.31375 -240.95825195 866.79760742 C-260.39885457 854.46065804 -278.8899533 841.08950588 -296.55639648 826.31567383 C-297.11504395 825.84871094 -297.67369141 825.38174805 -298.24926758 824.90063477 C-304.95787746 819.27500451 -311.46139531 813.58929935 -317.56811523 807.30395508 C-319.39011934 805.48195097 -321.26420054 803.8369473 -323.24389648 802.19067383 C-329.27921615 797.01065895 -334.52231697 790.99072785 -339.88598633 785.13452148 C-341.34653823 783.54418069 -342.81724903 781.96452781 -344.29467773 780.38989258 C-350.31724365 773.90626898 -355.78090985 767.08860645 -361.1784668 760.08764648 C-362.50417676 758.38282669 -363.84951619 756.69623011 -365.20483398 755.01489258 C-396.95406954 715.52864494 -420.47920368 670.11662671 -437.41503906 622.51269531 C-438.20317917 620.30506007 -439.00326096 618.10166452 -439.81298828 615.90185547 C-442.76867619 607.81689838 -445.28934791 599.69847618 -447.49389648 591.37817383 C-447.74627579 590.43013885 -447.74627579 590.43013885 -448.00375366 589.46295166 C-451.94941391 574.55671254 -454.89976382 559.49989355 -457.55639648 544.31567383 C-457.71978516 543.39705566 -457.88317383 542.4784375 -458.05151367 541.53198242 C-459.05166958 535.81086588 -459.85529013 530.08066183 -460.55639648 524.31567383 C-460.75942383 522.69459717 -460.75942383 522.69459717 -460.96655273 521.04077148 C-464.88797379 488.65813568 -464.92938411 455.75318259 -461.55639648 423.31567383 C-461.42749023 422.00759766 -461.29858398 420.69952148 -461.16577148 419.35180664 C-451.27277978 319.67524867 -408.57664172 225.01457477 -339.11499023 150.09692383 C-336.8394037 147.62330915 -334.63481682 145.10320204 -332.43139648 142.56567383 C-326.23755934 135.65887701 -319.34682516 129.44098865 -312.53930664 123.15014648 C-310.85443915 121.5914055 -309.17806566 120.02441609 -307.50561523 118.45239258 C-301.13144076 112.53149274 -294.42574825 107.1560624 -287.53979492 101.85327148 C-285.41107899 100.20301878 -283.29933563 98.53259004 -281.18920898 96.85864258 C-272.55018793 90.0266214 -263.82328376 83.52008016 -254.54174805 77.5871582 C-252.4108758 76.2224776 -250.29254418 74.83939354 -248.17358398 73.45629883 C-231.32665922 62.5488581 -213.67099867 52.94969814 -195.55639648 44.31567383 C-194.35176758 43.74018799 -194.35176758 43.74018799 -193.12280273 43.15307617 C-178.88359705 36.40015964 -164.39589089 30.60924816 -149.55639648 25.31567383 C-148.77377441 25.03240234 -147.99115234 24.74913086 -147.18481445 24.45727539 C-116.20723499 13.3067251 -82.4857353 5.88780029 -49.70214844 2.64794922 C-47.38426384 2.40311872 -45.07059103 2.11758554 -42.76025391 1.80957031 C-28.5423877 -0.01566189 -14.30906068 -0.02534335 0 0 Z " fill="#371A5B" transform="translate(714.556396484375,281.684326171875)"/>
<path d="M0 0 C3.63 0 7.26 0 11 0 C20.06023499 29.02296262 20.06023499 29.02296262 23.828125 41.984375 C25.17050607 46.60198137 26.55328766 51.20728886 27.9375 55.8125 C28.1543042 56.53381104 28.3711084 57.25512207 28.59448242 57.99829102 C29.08159707 59.61846535 29.56892511 61.23857554 30.05639648 62.85864258 C30.7813543 65.27210499 31.50465554 67.68603952 32.22680664 70.1003418 C35.17223138 79.94208593 38.14145131 89.77639846 41.12890625 99.60546875 C41.48931503 100.79127029 41.84972382 101.97707184 42.22105408 103.19880676 C43.70988371 108.09616716 45.19915796 112.99339193 46.68920898 117.89038086 C50.50722907 130.44005411 54.32172789 142.98943756 58.00024414 155.58081055 C59.29173418 159.99773804 60.61047422 164.40614438 61.9375 168.8125 C62.38414495 170.29816795 62.83075748 171.78384566 63.27734375 173.26953125 C63.53668701 174.1311084 63.79603027 174.99268555 64.06323242 175.88037109 C64.76614017 178.22119862 65.46660986 180.56269437 66.1652832 182.90478516 C69.16075858 192.93353115 72.20231462 202.94773613 75.26669502 212.95560646 C76.60135149 217.31701017 77.93233141 221.67953768 79.26338291 226.04204273 C80.40870345 229.79467248 81.55651553 233.54650886 82.70922852 237.296875 C83.84360975 240.98809016 84.97152211 244.68122693 86.09511375 248.37574005 C86.51897887 249.76538864 86.94513491 251.15434084 87.37374306 252.54253387 C87.97054704 254.47666903 88.55831458 256.41358538 89.14575195 258.35058594 C89.48073196 259.44497986 89.81571198 260.53937378 90.1608429 261.66693115 C91 265 91 265 92 273 C34.91 273 -22.18 273 -81 273 C-79.88806758 262.99260824 -79.88806758 262.99260824 -77.875 257.5 C-75.58601871 250.97529796 -73.67614666 244.39831299 -71.8515625 237.73046875 C-68.29556623 224.89153922 -64.48053824 212.13874396 -60.59326172 199.39672852 C-59.49776366 195.80516822 -58.40676996 192.2122626 -57.31640625 188.61914062 C-53.71843489 176.78337556 -50.0785182 164.96385068 -46.27600098 153.19197083 C-44.32130932 147.11728669 -42.57108824 141.00519776 -40.89831543 134.84768677 C-39.33853314 129.13557213 -37.64585629 123.47223276 -35.90625 117.8125 C-33.11467855 108.68499027 -30.35867454 99.54735649 -27.625 90.40234375 C-27.2479895 89.14216934 -26.870979 87.88199493 -26.48254395 86.58363342 C-24.93173433 81.39980912 -23.38135324 76.21585842 -21.83398438 71.03100586 C-17.75909249 57.3793148 -13.67382774 43.73505849 -9.2779541 30.18247986 C-7.19838868 23.74742579 -5.33890846 17.26524376 -3.60021973 10.7301178 C-2.60053687 7.00268584 -1.44143627 3.60359067 0 0 Z " fill="#FEFEFE" transform="translate(755,528)"/>
</svg>
